# xmcd
#
# Track frame offsets: 
#        150
#        18188
#        34386
#
# Disc length: 653 seconds
#
# Revision: 0
# Processed by: cddbd v1.5.2PL0 Copyright (c) Steve Scherf et al.
# Submitted via: ExactAudioCopy v1.0b1
#
DISCID=1b028b03
DTITLE=Eric Bibb - Eric Bibb Promo Single
DYEAR=2001
DGENRE=Blues
TTITLE0=Hope In A Hopeless World
TTITLE1=Angel
TTITLE2=Right On Time
EXTD=
EXTT0=
EXTT1=
EXTT2=
PLAYORDER=
